<svg width="300" height="400" viewBox="0 0 300 400" xmlns="http://www.w3.org/2000/svg">
  <!-- Fundo temático -->
  <rect width="300" height="400" fill="#F5E6CA" />
  
  <!-- Capivara estilizada -->
  <!-- Corpo -->
  <ellipse cx="150" cy="220" rx="60" ry="40" fill="#8B5A2B" />
  
  <!-- Cabeça -->
  <ellipse cx="150" cy="160" rx="40" ry="30" fill="#8B5A2B" />
  
  <!-- Olhos -->
  <circle cx="135" cy="150" r="5" fill="black" />
  <circle cx="165" cy="150" r="5" fill="black" />
  
  <!-- Nariz -->
  <ellipse cx="150" cy="170" rx="8" ry="5" fill="black" />
  
  <!-- Orelhas -->
  <path d="M115 140 Q125 120 135 140" fill="#5D3A1A" />
  <path d="M165 140 Q175 120 185 140" fill="#5D3A1A" />
  
  <!-- Pernas em movimento de dança -->
  <path d="M110 250 Q90 300 110 320" stroke="#5D3A1A" stroke-width="8" fill="none" />
  <path d="M130 250 Q150 300 130 320" stroke="#5D3A1A" stroke-width="8" fill="none" />
  <path d="M170 250 Q190 300 170 320" stroke="#5D3A1A" stroke-width="8" fill="none" />
  <path d="M190 250 Q210 300 190 320" stroke="#5D3A1A" stroke-width="8" fill="none" />
  
  <!-- Rabo -->
  <path d="M210 220 Q230 200 220 180" stroke="#5D3A1A" stroke-width="5" fill="none" />
  
  <!-- Chapéu de frevo -->
  <path d="M120 120 L150 80 L180 120 Z" fill="#FF0000" />
  <circle cx="150" cy="85" r="10" fill="#FFFF00" />
  
  <!-- Sombrinha de frevo -->
  <path d="M100 100 Q150 30 200 100" fill="#FFD700" opacity="0.8" />
  <line x1="150" y1="100" x2="150" y2="180" stroke="#8B4513" stroke-width="3" />
  
  <!-- Detalhes rítmicos -->
  <circle cx="50" cy="50" r="5" fill="#FF0000">
    <animate attributeName="r" values="5;8;5" dur="0.5s" repeatCount="indefinite" />
  </circle>
  <circle cx="250" cy="80" r="5" fill="#0000FF">
    <animate attributeName="r" values="5;8;5" dur="0.7s" repeatCount="indefinite" />
  </circle>
</svg>