<svg viewBox="0 0 400 400" xmlns="http://www.w3.org/2000/svg">
  <!-- Fundo decorativo -->
  <rect width="400" height="400" fill="#FFE4B5" rx="20"/>
  
  <!-- Chão -->
  <rect x="0" y="320" width="400" height="80" fill="#8B4513"/>
  
  <!-- Padrão de frevo no chão -->
  <circle cx="50" cy="340" r="8" fill="#FFD700"/>
  <circle cx="90" cy="340" r="8" fill="#FF6347"/>
  <circle cx="130" cy="340" r="8" fill="#FFD700"/>
  <circle cx="170" cy="340" r="8" fill="#FF6347"/>
  <circle cx="210" cy="340" r="8" fill="#FFD700"/>
  <circle cx="250" cy="340" r="8" fill="#FF6347"/>
  <circle cx="290" cy="340" r="8" fill="#FFD700"/>
  <circle cx="330" cy="340" r="8" fill="#FF6347"/>
  <circle cx="370" cy="340" r="8" fill="#FFD700"/>
  
  <!-- Corpo da capivara -->
  <ellipse cx="200" cy="250" rx="60" ry="40" fill="#D2B48C"/>
  
  <!-- Cabeça -->
  <ellipse cx="200" cy="180" rx="45" ry="35" fill="#D2B48C"/>
  
  <!-- Orelhas -->
  <ellipse cx="175" cy="160" rx="12" ry="20" fill="#D2B48C"/>
  <ellipse cx="225" cy="160" rx="12" ry="20" fill="#D2B48C"/>
  <ellipse cx="175" cy="160" rx="6" ry="15" fill="#FFB6C1"/>
  <ellipse cx="225" cy="160" rx="6" ry="15" fill="#FFB6C1"/>
  
  <!-- Olhos -->
  <circle cx="185" cy="175" r="5" fill="#000"/>
  <circle cx="215" cy="175" r="5" fill="#000"/>
  <circle cx="187" cy="173" r="2" fill="#FFF"/>
  <circle cx="217" cy="173" r="2" fill="#FFF"/>
  
  <!-- Nariz -->
  <ellipse cx="200" cy="185" rx="3" ry="2" fill="#000"/>
  
  <!-- Boca -->
  <path d="M190 195 Q200 205 210 195" stroke="#000" stroke-width="2" fill="none"/>
  
  <!-- Pernas -->
  <ellipse cx="170" cy="280" rx="12" ry="25" fill="#D2B48C"/>
  <ellipse cx="230" cy="280" rx="12" ry="25" fill="#D2B48C"/>
  <ellipse cx="185" cy="310" rx="10" ry="15" fill="#D2B48C"/>
  <ellipse cx="215" cy="310" rx="10" ry="15" fill="#D2B48C"/>
  
  <!-- Pés -->
  <ellipse cx="170" cy="320" rx="15" ry="8" fill="#A0522D"/>
  <ellipse cx="230" cy="320" rx="15" ry="8" fill="#A0522D"/>
  
  <!-- Braços dançando -->
  <ellipse cx="150" cy="230" rx="8" ry="25" fill="#D2B48C" transform="rotate(-30 150 230)">
    <animateTransform 
      attributeName="transform"
      attributeType="XML"
      type="rotate"
      from="0 150 230"
      to="360 150 230"
      dur="2s"
      repeatCount="indefinite"
    />
  </ellipse>
  <ellipse cx="250" cy="230" rx="8" ry="25" fill="#D2B48C" transform="rotate(30 250 230)">
    <animateTransform 
      attributeName="transform"
      attributeType="XML"
      type="rotate"
      from="0 250 230"
      to="-360 250 230"
      dur="2s"
      repeatCount="indefinite"
    />
  </ellipse>
  
  <!-- Mãos -->
  <circle cx="140" cy="210" r="10" fill="#D2B48C"/>
  <circle cx="260" cy="210" r="10" fill="#D2B48C"/>
  
  <!-- Chapéu de frevo -->
  <ellipse cx="200" cy="140" rx="40" ry="8" fill="#FF6347"/>
  <rect x="160" y="100" width="80" height="40" fill="#FF6347" rx="5"/>
  <path d="M160 100 Q200 80 240 100" fill="#FF6347"/>
  <circle cx="200" cy="90" r="8" fill="#FFD700"/>
  
  <!-- Plumagem -->
  <path d="M180 80 L175 60 L185 70 L190 55 L195 70 L205 60 L210 80" fill="#FFD700"/>
  
  <!-- Instrumento musical (triângulo) -->
  <path d="M270 200 L280 190 L290 200" stroke="#FFD700" stroke-width="3" fill="none"/>
  <circle cx="280" cy="190" r="2" fill="#FFD700"/>
  
  <!-- Notas musicais -->
  <circle cx="300" cy="150" r="5" fill="#FF69B4" opacity="0.8"/>
  <circle cx="320" cy="130" r="4" fill="#87CEEB" opacity="0.8"/>
  <circle cx="340" cy="160" r="6" fill="#98FB98" opacity="0.8"/>
</svg>